# xmcd
#
# Track frame offsets: 
#        150
#        12545
#        24667
#        36125
#        55247
#        69045
#        81517
#        93445
#        109752
#        121885
#        135987
#        149455
#        162480
#        174820
#        187140
#        198175
#        210532
#        220400
#        232942
#        244567
#        256795
#        268635
#
# Disc length: 3746 seconds
#
# Revision: 0
# Processed by: cddbd v1.5.2PL0 Copyright (c) Steve Scherf et al.
# Submitted via: ExactAudioCopyFreeDBPlugin 1.0
#
DISCID=300ea016
DTITLE=Various Artist - Dvorana country 5
DYEAR=1999
DGENRE=Country
TTITLE0=The Fighting Side Of Me
TTITLE1=Billy Overcame His Side
TTITLE2=Working Man Blues
TTITLE3=Ate The Good Times Really Over
TTITLE4=Branded Man
TTITLE5=California Blues
TTITLE6=San Antonic Rose
TTITLE7=C. C. Waterback
TTITLE8=Why Am I Drinkin'
TTITLE9=No Reason To Out
TTITLE10=Okie From Muskogee
TTITLE11=Jambalaya
TTITLE12=Lovesick Blues
TTITLE13=Move It On Over
TTITLE14=Lovesome Whistle
TTITLE15=Lost Highway
TTITLE16=Honky Tonk Blues
TTITLE17=I'm So Levesome I could Cry
TTITLE18=Kaw-liga
TTITLE19=Your Cheatin' Heart
TTITLE20=Long Gone lonesome Blues
TTITLE21=I Saw The Light
EXTD=
EXTT0=
EXTT1=
EXTT2=
EXTT3=
EXTT4=
EXTT5=
EXTT6=
EXTT7=
EXTT8=
EXTT9=
EXTT10=
EXTT11=
EXTT12=
EXTT13=
EXTT14=
EXTT15=
EXTT16=
EXTT17=
EXTT18=
EXTT19=
EXTT20=
EXTT21=
PLAYORDER=
